<?xml version="1.0" encoding="UTF-8" standalone="no"?>
<!-- Created with Inkscape (http://www.inkscape.org/) -->

<svg
   xmlns:dc="http://purl.org/dc/elements/1.1/"
   xmlns:cc="http://creativecommons.org/ns#"
   xmlns:rdf="http://www.w3.org/1999/02/22-rdf-syntax-ns#"
   xmlns:svg="http://www.w3.org/2000/svg"
   xmlns="http://www.w3.org/2000/svg"
   xmlns:sodipodi="http://sodipodi.sourceforge.net/DTD/sodipodi-0.dtd"
   xmlns:inkscape="http://www.inkscape.org/namespaces/inkscape"
   version="1.1"
   id="svg2"
   xml:space="preserve"
   width="757.31769"
   height="736.95038"
   viewBox="0 0 757.31765 736.95035"
   sodipodi:docname="lang.svg"
   inkscape:version="0.92.2 5c3e80d, 2017-08-06"><metadata
     id="metadata8"><rdf:RDF><cc:Work
         rdf:about=""><dc:format>image/svg+xml</dc:format><dc:type
           rdf:resource="http://purl.org/dc/dcmitype/StillImage" /><dc:title /></cc:Work></rdf:RDF></metadata><defs
     id="defs6"><clipPath
       clipPathUnits="userSpaceOnUse"
       id="clipPath18"><path
         d="M 0,800 H 800 V 0 H 0 Z"
         id="path16"
         inkscape:connector-curvature="0" /></clipPath></defs><sodipodi:namedview
     pagecolor="#ffffff"
     bordercolor="#666666"
     borderopacity="1"
     objecttolerance="10"
     gridtolerance="10"
     guidetolerance="10"
     inkscape:pageopacity="0"
     inkscape:pageshadow="2"
     inkscape:window-width="1920"
     inkscape:window-height="1035"
     id="namedview4"
     showgrid="false"
     inkscape:zoom="0.22124998"
     inkscape:cx="-265.40886"
     inkscape:cy="187.68421"
     inkscape:window-x="235"
     inkscape:window-y="1"
     inkscape:window-maximized="1"
     inkscape:current-layer="g10"
     fit-margin-top="0"
     fit-margin-left="0"
     fit-margin-right="0"
     fit-margin-bottom="0" /><g
     id="g10"
     inkscape:groupmode="layer"
     inkscape:label="18206"
     transform="matrix(1.3333333,0,0,-1.3333333,-154.6744,901.80851)"><g
       id="g12"
       style="fill:#ffffff;fill-opacity:1"><g
         id="g14"
         clip-path="url(#clipPath18)"
         style="fill:#ffffff;fill-opacity:1"><g
           id="g20"
           transform="translate(641.2891,676.3564)"
           style="fill:#ffffff;fill-opacity:1"><path
             d="m 0,0 h -241.59 c -23.55,0 -42.708,-19.157 -42.708,-42.705 v -183.01 h 28.313 c 0.566,0 1.125,-0.026 1.687,-0.043 v 183.053 c 0,7.006 5.7,12.705 12.708,12.705 L 0,-30 c 7.006,0 12.705,-5.699 12.705,-12.705 v -241.59 C 12.705,-291.301 7.006,-297 0,-297 h -198.275 v -30 H 0 c 23.548,0 42.705,19.157 42.705,42.705 v 241.59 C 42.705,-19.157 23.548,0 0,0"
             style="fill:#ffffff;fill-opacity:1;fill-rule:nonzero;stroke:none"
             id="path22"
             inkscape:connector-curvature="0" /></g><g
           id="g24"
           transform="translate(306.4458,181.8936)"
           style="fill:#ffffff;fill-opacity:1"><path
             d="m 0,0 -13.99,43.646 -55.904,-0.005 -13.987,-43.646 -41.681,0.003 57.855,180.507 h 51.534 L 41.682,-0.005 Z m 78.858,238.748 h -241.593 c -15.238,0 -27.705,-12.467 -27.705,-27.705 V -30.545 c 0,-15.237 12.467,-27.705 27.705,-27.705 H 78.858 c 15.242,0 27.71,12.468 27.71,27.705 v 241.588 c 0,15.238 -12.468,27.705 -27.71,27.705"
             style="fill:#ffffff;fill-opacity:1;fill-rule:nonzero;stroke:none"
             id="path26"
             inkscape:connector-curvature="0" /></g><g
           id="g28"
           transform="translate(247.7832,260.5742)"
           style="fill:#ffffff;fill-opacity:1"><path
             d="M 0,0 H 33.443 L 16.723,52.176 Z"
             style="fill:#ffffff;fill-opacity:1;fill-rule:nonzero;stroke:none"
             id="path30"
             inkscape:connector-curvature="0" /></g><g
           id="g32"
           transform="translate(547.9609,482.9082)"
           style="fill:#ffffff;fill-opacity:1"><path
             d="m 0,0 c -4.781,-14.611 -26.301,-23.849 -41.975,-23.849 -15.142,0 -22.582,6.11 -23.379,18.33 v 1.595 c 0,16.471 12.198,20.34 30.02,26.567 C -19.301,28.244 -6.375,34.079 0,40.455 Z m 38.582,-21.929 c -5.977,1.179 -9.625,5.714 -9.625,14.285 v 69.871 c 0,31.083 -21.252,44.366 -59.773,44.366 -21.655,0 -40.657,-6.958 -53.432,-18.317 l 8.797,-24.234 c 9.89,11.652 29.123,19.438 42.775,19.438 20.455,0 31.348,-4.439 31.348,-15.016 0,-6.102 -12.393,-13.57 -41.18,-24.133 C -72.885,33.186 -93.516,21.846 -93.516,-6.58 v -1.595 c 0.534,-24.441 15.411,-38.521 45.43,-38.521 22.848,0 45.961,4.358 54.195,17.641 3.739,-14.453 18.243,-17.376 27.366,-17.376 1.65,0 3.363,0.128 5.107,0.342 z"
             style="fill:#ffffff;fill-opacity:1;fill-rule:nonzero;stroke:none"
             id="path34"
             inkscape:connector-curvature="0" /></g><g
           id="g36"
           transform="translate(250.9712,619.6479)"
           style="fill:#ffffff;fill-opacity:1"><path
             d="m 0,0 c -31.202,-15.59 -67.615,-46.491 -76.518,-106.894 h -41.163 l 64.211,-64.21 64.209,64.21 h -40.183 c 6.185,29.521 22.542,51.274 48.876,64.843 17.94,9.244 36.38,12.638 47.191,13.884 V 18.351 C 52.953,17.182 26.515,13.249 0,0"
             style="fill:#ffffff;fill-opacity:1;fill-rule:nonzero;stroke:none"
             id="path38"
             inkscape:connector-curvature="0" /></g><g
           id="g40"
           transform="translate(636.7969,264.0244)"
           style="fill:#ffffff;fill-opacity:1"><path
             d="M 0,0 -64.211,64.211 -128.42,0 h 40.184 c -6.187,-29.521 -22.543,-51.273 -48.876,-64.843 -18.662,-9.616 -37.862,-12.9 -48.454,-14.022 v -46.483 c 13.252,1.032 40.523,4.784 67.885,18.454 31.202,15.59 67.616,46.492 76.518,106.894 z"
             style="fill:#ffffff;fill-opacity:1;fill-rule:nonzero;stroke:none"
             id="path42"
             inkscape:connector-curvature="0" /></g></g></g></g></svg>