<?xml version="1.0" encoding="UTF-8" standalone="no"?>
<!-- Created with Inkscape (http://www.inkscape.org/) -->

<svg
   xmlns:dc="http://purl.org/dc/elements/1.1/"
   xmlns:cc="http://creativecommons.org/ns#"
   xmlns:rdf="http://www.w3.org/1999/02/22-rdf-syntax-ns#"
   xmlns:svg="http://www.w3.org/2000/svg"
   xmlns="http://www.w3.org/2000/svg"
   xmlns:sodipodi="http://sodipodi.sourceforge.net/DTD/sodipodi-0.dtd"
   xmlns:inkscape="http://www.inkscape.org/namespaces/inkscape"
   width="206.45596mm"
   height="75.129356mm"
   viewBox="0 0 206.45594 75.12935"
   version="1.1"
   id="svg8"
   inkscape:version="0.92.2 5c3e80d, 2017-08-06"
   sodipodi:docname="sakuragmi2.svg"
   inkscape:export-filename="/Users/ryuto/Desktop/sakuragmi.png"
   inkscape:export-xdpi="96"
   inkscape:export-ydpi="96">
  <defs
     id="defs2" />
  <sodipodi:namedview
     id="base"
     pagecolor="#ffffff"
     bordercolor="#666666"
     borderopacity="1.0"
     inkscape:pageopacity="1"
     inkscape:pageshadow="2"
     inkscape:zoom="0.57770624"
     inkscape:cx="409.59905"
     inkscape:cy="-135.66983"
     inkscape:document-units="mm"
     inkscape:current-layer="g986"
     showgrid="true"
     fit-margin-top="0"
     fit-margin-left="0"
     fit-margin-right="0"
     fit-margin-bottom="0"
     inkscape:snap-grids="false"
     inkscape:window-width="1920"
     inkscape:window-height="1035"
     inkscape:window-x="235"
     inkscape:window-y="1"
     inkscape:window-maximized="1"
     inkscape:snap-global="true"
     units="mm"
     inkscape:snap-object-midpoints="true"
     inkscape:snap-others="false"
     inkscape:snap-to-guides="true"
     inkscape:snap-nodes="false"
     inkscape:snap-bbox="false"
     inkscape:bbox-paths="true"
     inkscape:bbox-nodes="true"
     inkscape:snap-bbox-edge-midpoints="true"
     inkscape:snap-bbox-midpoints="true"
     inkscape:object-paths="true"
     inkscape:snap-intersection-paths="true"
     inkscape:snap-midpoints="true"
     inkscape:snap-smooth-nodes="true"
     inkscape:snap-center="true"
     inkscape:snap-text-baseline="true"
     inkscape:snap-page="true"
     inkscape:pagecheckerboard="false">
    <inkscape:grid
       type="xygrid"
       id="grid838"
       originx="-25.189154"
       originy="-156.91575"
       spacingx="1.3229166"
       spacingy="1.3229166"
       empspacing="12" />
  </sodipodi:namedview>
  <metadata
     id="metadata5">
    <rdf:RDF>
      <cc:Work
         rdf:about="">
        <dc:format>image/svg+xml</dc:format>
        <dc:type
           rdf:resource="http://purl.org/dc/dcmitype/StillImage" />
        <dc:title></dc:title>
      </cc:Work>
    </rdf:RDF>
  </metadata>
  <g
     inkscape:label="レイヤー 1"
     inkscape:groupmode="layer"
     id="layer1"
     transform="translate(-137.504,119.709)">
    <text
       xml:space="preserve"
       style="font-style:normal;font-weight:normal;font-size:10.58333302px;line-height:1.25;font-family:sans-serif;letter-spacing:0px;word-spacing:0px;fill:#000000;fill-opacity:1;stroke:none;stroke-width:0.26458332"
       x="65.767853"
       y="162.06248"
       id="text817"><tspan
         sodipodi:role="line"
         id="tspan815"
         x="65.767853"
         y="171.59975"
         style="stroke-width:0.26458332" /></text>
    <text
       xml:space="preserve"
       style="font-style:normal;font-weight:normal;font-size:10.58333302px;line-height:1.25;font-family:sans-serif;letter-spacing:0px;word-spacing:0px;fill:#000000;fill-opacity:1;stroke:none;stroke-width:0.26458332"
       x="108.85714"
       y="171.5119"
       id="text821"><tspan
         sodipodi:role="line"
         id="tspan819"
         x="108.85714"
         y="181.04916"
         style="stroke-width:0.26458332" /></text>
    <g
       aria-label="サイリオン"
       style="font-style:normal;font-variant:normal;font-weight:normal;font-stretch:normal;font-size:10.58333302px;line-height:1.25;font-family:'ヒラギノ角ゴ Std';-inkscape-font-specification:'ヒラギノ角ゴ Std';letter-spacing:0px;word-spacing:0px;fill:#000000;fill-opacity:1;stroke:none;stroke-width:0.26458332"
       id="text825">
      <g
         id="g900"
         style="fill:#ff009d;fill-opacity:0.95256916">
        <path
           style="fill:#00c9ff;fill-opacity:1;stroke:none;stroke-width:1.88976383;stroke-linecap:square;stroke-linejoin:round;stroke-miterlimit:4;stroke-dasharray:none;stroke-opacity:0.97616906;paint-order:fill markers stroke"
           d="m 165.20312,184.95312 a 14.999999,14.999999 0 0 0 -15,15 14.999999,14.999999 0 0 0 0.125,1.78907 V 219.9043 H 110.1543 v 0.0508 A 14.999999,14.999999 0 0 0 95.203125,234.95312 14.999999,14.999999 0 0 0 110.1543,249.95117 V 250 h 40.17382 v 43.11914 a 14.999999,14.999999 0 0 0 -0.125,1.83398 14.999999,14.999999 0 0 0 15,15 14.999999,14.999999 0 0 0 15,-15 h 0.125 V 250 h 40 v 44.95312 h 30 V 250 H 290 v -0.0566 a 14.999999,14.999999 0 0 0 0.20312,0.01 14.999999,14.999999 0 0 0 15,-15 14.999999,14.999999 0 0 0 -15,-15 14.999999,14.999999 0 0 0 -0.20312,0.008 v -0.0566 h -39.67188 v -19.95118 h -0.125 a 14.999999,14.999999 0 0 0 -15,-15 14.999999,14.999999 0 0 0 -15,15 14.999999,14.999999 0 0 0 0.125,1.78907 v 18.16211 h -40 v -19.95118 h -0.125 a 14.999999,14.999999 0 0 0 -15,-15 z M 220,295 a 35.000001,35.000001 0 0 1 -35,35 h -20.125 a 14.999999,14.999999 0 0 0 -15,15 14.999999,14.999999 0 0 0 15,15 H 185 a 64.999997,64.999997 0 0 0 65,-65 z"
           id="rect902"
           transform="matrix(0.26458333,0,0,0.26458333,112.31484,-152.24722)"
           inkscape:connector-curvature="0" />
        <path
           style="fill:#00c9ff;fill-opacity:1;stroke:none;stroke-width:0.5;stroke-linecap:square;stroke-linejoin:round;stroke-miterlimit:4;stroke-dasharray:none;stroke-opacity:0.97616906;paint-order:fill markers stroke"
           d="m 204.93418,-95.346615 h 7.90714 l -1e-5,34.365475 h -7.90714 z"
           id="rect1152"
           inkscape:connector-curvature="0"
           sodipodi:nodetypes="ccccc"
           inkscape:export-xdpi="96"
           inkscape:export-ydpi="96" />
        <path
           style="fill:#00c9ff;fill-opacity:1;stroke:none;stroke-width:0.5;stroke-linecap:square;stroke-linejoin:round;stroke-miterlimit:4;stroke-dasharray:none;stroke-opacity:0.97616906;paint-order:fill markers stroke"
           d="m 212.85649,-60.965961 a 3.9687498,3.9687498 0 0 1 -3.96875,3.96875 3.9687498,3.9687498 0 0 1 -3.96875,-3.96875 3.9687498,3.9687498 0 0 1 3.96875,-3.968747 3.9687498,3.9687498 0 0 1 3.96875,3.968747 z"
           id="path1174"
           inkscape:connector-curvature="0"
           inkscape:export-xdpi="96"
           inkscape:export-ydpi="96" />
        <path
           style="fill:#00c9ff;fill-opacity:1;stroke:none;stroke-width:0.5;stroke-linecap:square;stroke-linejoin:round;stroke-miterlimit:4;stroke-dasharray:none;stroke-opacity:0.97616906;paint-order:fill markers stroke"
           d="m 230.05442,-94.038876 h 7.9375 v 18.520832 h -7.9375 z"
           id="rect1190"
           inkscape:connector-curvature="0"
           inkscape:export-xdpi="96"
           inkscape:export-ydpi="96" />
        <path
           inkscape:connector-curvature="0"
           id="path1192"
           d="m 237.99192,-75.518044 a 3.9687498,3.9687498 0 0 1 -3.96875,3.96875 3.9687498,3.9687498 0 0 1 -3.96875,-3.96875 3.9687498,3.9687498 0 0 1 3.96875,-3.968747 3.9687498,3.9687498 0 0 1 3.96875,3.968747 z"
           style="fill:#00c9ff;fill-opacity:1;stroke:none;stroke-width:0.5;stroke-linecap:square;stroke-linejoin:round;stroke-miterlimit:4;stroke-dasharray:none;stroke-opacity:0.97616906;paint-order:fill markers stroke"
           inkscape:export-xdpi="96"
           inkscape:export-ydpi="96" />
        <path
           inkscape:connector-curvature="0"
           id="path1194"
           d="m 237.99193,-94.038876 a 3.9687498,3.9687498 0 0 1 -3.96875,3.96875 3.9687498,3.9687498 0 0 1 -3.96875,-3.96875 3.9687498,3.9687498 0 0 1 3.96875,-3.968747 3.9687498,3.9687498 0 0 1 3.96875,3.968747 z"
           style="fill:#00c9ff;fill-opacity:1;stroke:none;stroke-width:0.5;stroke-linecap:square;stroke-linejoin:round;stroke-miterlimit:4;stroke-dasharray:none;stroke-opacity:0.97616906;paint-order:fill markers stroke"
           inkscape:export-xdpi="96"
           inkscape:export-ydpi="96" />
        <g
           id="g986"
           style="fill:#3300e1;fill-opacity:1">
          <path
             style="fill:#3300e1;fill-opacity:1;stroke:none;stroke-width:1.88976383;stroke-linecap:square;stroke-linejoin:round;stroke-miterlimit:4;stroke-dasharray:none;stroke-opacity:0.97616906;paint-order:fill markers stroke"
             d="m 472.5918,219.81641 a 35.000001,35.000001 0 0 1 -35,35 h -74 v 30.09375 h 74 v -0.0937 a 64.999997,64.999997 0 0 0 65,-65 z"
             transform="matrix(0.26458333,0,0,0.26458333,127.504,-129.709)"
             id="path1185"
             inkscape:connector-curvature="0" />
          <path
             inkscape:export-ydpi="96"
             inkscape:export-xdpi="96"
             sodipodi:nodetypes="ccccc"
             inkscape:connector-curvature="0"
             style="fill:#3300e1;fill-opacity:1;stroke:none;stroke-width:0.5;stroke-linecap:square;stroke-linejoin:round;stroke-miterlimit:4;stroke-dasharray:none;stroke-opacity:0.97616906;paint-order:fill markers stroke"
             d="m 252.27941,-94.038878 h 7.9375 l 0.26459,22.489584 h -7.9375 z"
             id="path1216" />
          <path
             inkscape:export-ydpi="96"
             inkscape:export-xdpi="96"
             inkscape:connector-curvature="0"
             id="path1218"
             d="m 260.21691,-94.038878 a 3.9687498,3.9687498 0 0 1 -3.96875,3.968751 3.9687498,3.9687498 0 0 1 -3.96875,-3.968751 3.9687498,3.9687498 0 0 1 3.96875,-3.968747 3.9687498,3.9687498 0 0 1 3.96875,3.968747 z"
             style="fill:#3300e1;fill-opacity:1;stroke:none;stroke-width:0.5;stroke-linecap:square;stroke-linejoin:round;stroke-miterlimit:4;stroke-dasharray:none;stroke-opacity:0.97616906;paint-order:fill markers stroke" />
          <path
             inkscape:export-ydpi="96"
             inkscape:export-xdpi="96"
             sodipodi:nodetypes="ccccc"
             inkscape:connector-curvature="0"
             id="path1222"
             d="m 225.0394,-45.724303 -6.96542,-6.9654 5.63043,-5.630424 6.96542,6.9654 z"
             style="fill:#3300e1;fill-opacity:1;stroke:none;stroke-width:0.5;stroke-linecap:square;stroke-linejoin:round;stroke-miterlimit:4;stroke-dasharray:none;stroke-opacity:0.97616906;paint-order:fill markers stroke" />
          <path
             inkscape:export-ydpi="96"
             inkscape:export-xdpi="96"
             style="fill:#3300e1;fill-opacity:1;stroke:none;stroke-width:0.5;stroke-linecap:square;stroke-linejoin:round;stroke-miterlimit:4;stroke-dasharray:none;stroke-opacity:0.97616906;paint-order:fill markers stroke"
             d="m 230.66982,-65.285542 -6.96541,6.965415 -5.63042,-5.630435 6.96541,-6.965415 z"
             id="path1224"
             inkscape:connector-curvature="0"
             sodipodi:nodetypes="ccccc" />
          <path
             inkscape:export-ydpi="96"
             inkscape:export-xdpi="96"
             d="m 223.70441,-50.312176 a 8.0079498,8.0079498 0 0 1 -6.93509,-4.003975 8.0079498,8.0079498 0 0 1 0,-8.00795 8.0079498,8.0079498 0 0 1 6.93509,-4.003974 l 0,8.007949 z"
             sodipodi:end="4.712389"
             sodipodi:start="1.5707963"
             sodipodi:ry="8.0079498"
             sodipodi:rx="8.0079498"
             sodipodi:cy="-58.320126"
             sodipodi:cx="223.70441"
             sodipodi:type="arc"
             id="path1234"
             style="fill:#3300e1;fill-opacity:1;stroke:none;stroke-width:0.5;stroke-linecap:square;stroke-linejoin:bevel;stroke-miterlimit:4;stroke-dasharray:none;stroke-opacity:0.97616906;paint-order:fill markers stroke" />
          <path
             inkscape:export-ydpi="96"
             inkscape:export-xdpi="96"
             inkscape:connector-curvature="0"
             id="path1236"
             d="m 230.66983,-51.354727 a 3.9687498,3.9687498 0 0 1 0,5.61266 3.9687498,3.9687498 0 0 1 -5.61266,0 3.9687498,3.9687498 0 0 1 0,-5.612657 3.9687498,3.9687498 0 0 1 5.61266,-3e-6 z"
             style="fill:#3300e1;fill-opacity:1;stroke:none;stroke-width:0.5;stroke-linecap:square;stroke-linejoin:round;stroke-miterlimit:4;stroke-dasharray:none;stroke-opacity:0.97616906;paint-order:fill markers stroke" />
          <path
             inkscape:export-ydpi="96"
             inkscape:export-xdpi="96"
             style="fill:#3300e1;fill-opacity:1;stroke:none;stroke-width:0.5;stroke-linecap:square;stroke-linejoin:round;stroke-miterlimit:4;stroke-dasharray:none;stroke-opacity:0.97616906;paint-order:fill markers stroke"
             d="m 225.0394,-70.915977 a 3.9687498,3.9687498 0 0 1 5.61266,0 3.9687498,3.9687498 0 0 1 0,5.61266 3.9687498,3.9687498 0 0 1 -5.61266,1e-6 3.9687498,3.9687498 0 0 1 0,-5.612661 z"
             id="path1238"
             inkscape:connector-curvature="0" />
        </g>
        <path
           sodipodi:nodetypes="ccccc"
           inkscape:connector-curvature="0"
           id="path1288"
           d="m 269.70883,-95.386901 33.106,0.02511 v 7.962614 l -33.106,-0.02511 z"
           style="fill:#00c9ff;fill-opacity:1;stroke:none;stroke-width:0.5;stroke-linecap:square;stroke-linejoin:round;stroke-miterlimit:4;stroke-dasharray:none;stroke-opacity:0.97616906;paint-order:fill markers stroke"
           inkscape:export-xdpi="96"
           inkscape:export-ydpi="96" />
        <path
           inkscape:connector-curvature="0"
           id="path1290"
           d="m 273.67758,-91.393037 a 3.9687498,3.9687498 0 0 1 -3.96875,3.96875 3.9687498,3.9687498 0 0 1 -3.96875,-3.96875 3.9687498,3.9687498 0 0 1 3.96875,-3.968749 3.9687498,3.9687498 0 0 1 3.96875,3.968749 z"
           style="fill:#00c9ff;fill-opacity:1;stroke:none;stroke-width:0.5;stroke-linecap:square;stroke-linejoin:round;stroke-miterlimit:4;stroke-dasharray:none;stroke-opacity:0.97616906;paint-order:fill markers stroke"
           inkscape:export-xdpi="96"
           inkscape:export-ydpi="96" />
        <path
           inkscape:connector-curvature="0"
           id="path1292"
           d="m 306.78358,-91.393043 a 3.9687498,3.9687498 0 0 1 -3.96875,3.96875 3.9687498,3.9687498 0 0 1 -3.96875,-3.96875 3.9687498,3.9687498 0 0 1 3.96875,-3.96875 3.9687498,3.9687498 0 0 1 3.96875,3.96875 z"
           style="fill:#00c9ff;fill-opacity:1;stroke:none;stroke-width:0.5;stroke-linecap:square;stroke-linejoin:round;stroke-miterlimit:4;stroke-dasharray:none;stroke-opacity:0.97616906;paint-order:fill markers stroke"
           inkscape:export-xdpi="96"
           inkscape:export-ydpi="96" />
        <path
           id="path1294"
           d="m 290.94167,-96.684719 h 7.9375 v 35.718758 h -7.9375 z"
           style="fill:#00c9ff;fill-opacity:1;stroke:none;stroke-width:0.5;stroke-linecap:square;stroke-linejoin:round;stroke-miterlimit:4;stroke-dasharray:none;stroke-opacity:0.97616906;paint-order:fill markers stroke"
           inkscape:connector-curvature="0"
           inkscape:export-xdpi="96"
           inkscape:export-ydpi="96" />
        <path
           inkscape:connector-curvature="0"
           id="path1298"
           d="m 298.84608,-96.684709 a 3.9687498,3.9687498 0 0 1 -3.96875,3.968754 3.9687498,3.9687498 0 0 1 -3.96875,-3.968754 3.9687498,3.9687498 0 0 1 3.96875,-3.968721 3.9687498,3.9687498 0 0 1 3.96875,3.968721 z"
           style="fill:#00c9ff;fill-opacity:1;stroke:none;stroke-width:0.5;stroke-linecap:square;stroke-linejoin:round;stroke-miterlimit:4;stroke-dasharray:none;stroke-opacity:0.97616906;paint-order:fill markers stroke"
           inkscape:export-xdpi="96"
           inkscape:export-ydpi="96" />
        <path
           inkscape:connector-curvature="0"
           id="path1300"
           d="m 294.87733,-64.93471 v 7.9375 l -7.9375,-10e-7 v -7.9375 z"
           style="fill:#00c9ff;fill-opacity:1;stroke:none;stroke-width:0.5;stroke-linecap:square;stroke-linejoin:round;stroke-miterlimit:4;stroke-dasharray:none;stroke-opacity:0.97616906;paint-order:fill markers stroke"
           sodipodi:nodetypes="ccccc"
           inkscape:export-xdpi="96"
           inkscape:export-ydpi="96" />
        <path
           style="fill:#00c9ff;fill-opacity:1;stroke:none;stroke-width:0.5;stroke-linecap:square;stroke-linejoin:round;stroke-miterlimit:4;stroke-dasharray:none;stroke-opacity:0.97616906;paint-order:fill markers stroke"
           d="m 294.87733,-56.997211 a 3.9687498,3.9687498 0 0 1 -3.96875,-3.96875 3.9687498,3.9687498 0 0 1 3.96875,-3.96875 3.9687498,3.9687498 0 0 1 3.96875,3.968751 3.9687498,3.9687498 0 0 1 -3.96875,3.968749 z"
           id="path1302"
           inkscape:connector-curvature="0"
           inkscape:export-xdpi="96"
           inkscape:export-ydpi="96" />
        <path
           inkscape:connector-curvature="0"
           id="path1304"
           d="m 286.93983,-56.997211 a 3.9687498,3.9687498 0 0 1 -3.96875,-3.96875 3.9687498,3.9687498 0 0 1 3.96875,-3.96875 3.9687498,3.9687498 0 0 1 3.96875,3.968751 3.9687498,3.9687498 0 0 1 -3.96875,3.968749 z"
           style="fill:#00c9ff;fill-opacity:1;stroke:none;stroke-width:0.5;stroke-linecap:square;stroke-linejoin:round;stroke-miterlimit:4;stroke-dasharray:none;stroke-opacity:0.97616906;paint-order:fill markers stroke"
           inkscape:export-xdpi="96"
           inkscape:export-ydpi="96" />
        <path
           sodipodi:nodetypes="ccccc"
           inkscape:connector-curvature="0"
           id="path1306"
           d="m 265.77317,-68.903461 23.06362,-23.063626 5.63042,5.630429 -23.06362,23.063615 z"
           style="fill:#00c9ff;fill-opacity:1;stroke:none;stroke-width:0.5;stroke-linecap:square;stroke-linejoin:round;stroke-miterlimit:4;stroke-dasharray:none;stroke-opacity:0.97616906;paint-order:fill markers stroke"
           inkscape:export-xdpi="96"
           inkscape:export-ydpi="96" />
        <path
           style="fill:#00c9ff;fill-opacity:1;stroke:none;stroke-width:0.5;stroke-linecap:square;stroke-linejoin:round;stroke-miterlimit:4;stroke-dasharray:none;stroke-opacity:0.97616906;paint-order:fill markers stroke"
           d="m 271.40359,-63.273043 a 3.9687498,3.9687498 0 0 1 -5.61266,0 3.9687498,3.9687498 0 0 1 0,-5.61266 3.9687498,3.9687498 0 0 1 5.61266,1e-6 3.9687498,3.9687498 0 0 1 0,5.612659 z"
           id="path1308"
           inkscape:connector-curvature="0"
           inkscape:export-xdpi="96"
           inkscape:export-ydpi="96" />
        <path
           sodipodi:nodetypes="ccccc"
           style="fill:#00c9ff;fill-opacity:1;stroke:none;stroke-width:0.5;stroke-linecap:square;stroke-linejoin:round;stroke-miterlimit:4;stroke-dasharray:none;stroke-opacity:0.97616906;paint-order:fill markers stroke"
           d="m 320.01275,-64.93471 v 7.9375 l -7.9375,-10e-7 v -7.9375 z"
           id="path1321"
           inkscape:connector-curvature="0"
           inkscape:export-xdpi="96"
           inkscape:export-ydpi="96" />
        <path
           inkscape:connector-curvature="0"
           id="path1323"
           d="m 323.9815,-60.965961 a 3.9687498,3.9687498 0 0 1 -3.96875,3.96875 3.9687498,3.9687498 0 0 1 -3.96875,-3.96875 3.9687498,3.9687498 0 0 1 3.96875,-3.968749 3.9687498,3.9687498 0 0 1 3.96875,3.968749 z"
           style="fill:#00c9ff;fill-opacity:1;stroke:none;stroke-width:0.5;stroke-linecap:square;stroke-linejoin:round;stroke-miterlimit:4;stroke-dasharray:none;stroke-opacity:0.97616906;paint-order:fill markers stroke"
           inkscape:export-xdpi="96"
           inkscape:export-ydpi="96" />
        <path
           style="fill:#00c9ff;fill-opacity:1;stroke:none;stroke-width:0.5;stroke-linecap:square;stroke-linejoin:round;stroke-miterlimit:4;stroke-dasharray:none;stroke-opacity:0.97616906;paint-order:fill markers stroke"
           d="m 312.07525,-56.997211 a 3.9687498,3.9687498 0 0 1 -3.96875,-3.96875 3.9687498,3.9687498 0 0 1 3.96875,-3.96875 3.9687498,3.9687498 0 0 1 3.96875,3.968751 3.9687498,3.9687498 0 0 1 -3.96875,3.968749 z"
           id="path1325"
           inkscape:connector-curvature="0"
           inkscape:export-xdpi="96"
           inkscape:export-ydpi="96" />
        <g
           id="g990"
           transform="translate(-10.57445,10.592213)">
          <path
             inkscape:export-ydpi="96"
             inkscape:export-xdpi="96"
             sodipodi:nodetypes="ccccc"
             inkscape:connector-curvature="0"
             id="path1327"
             d="m 327.77199,-74.373382 19.96959,-19.564779 5.63042,5.630429 -19.96959,19.564768 z"
             style="fill:#00c9ff;fill-opacity:1;stroke:none;stroke-width:0.5;stroke-linecap:square;stroke-linejoin:round;stroke-miterlimit:4;stroke-dasharray:none;stroke-opacity:0.97616906;paint-order:fill markers stroke" />
          <path
             inkscape:export-ydpi="96"
             inkscape:export-xdpi="96"
             style="fill:#00c9ff;fill-opacity:1;stroke:none;stroke-width:0.5;stroke-linecap:square;stroke-linejoin:round;stroke-miterlimit:4;stroke-dasharray:none;stroke-opacity:0.97616906;paint-order:fill markers stroke"
             d="m 353.372,-88.307732 a 3.9687498,3.9687498 0 0 1 -5.61266,0 3.9687498,3.9687498 0 0 1 0,-5.61266 3.9687498,3.9687498 0 0 1 5.61266,1e-6 3.9687498,3.9687498 0 0 1 0,5.612659 z"
             id="path1331"
             inkscape:connector-curvature="0" />
        </g>
        <rect
           style="fill:#00c9ff;fill-opacity:1;stroke:none;stroke-width:0.53464025;stroke-linecap:square;stroke-linejoin:bevel;stroke-miterlimit:4;stroke-dasharray:none;stroke-opacity:0.97616906;paint-order:fill markers stroke"
           id="rect1333"
           width="11.168004"
           height="10.750381"
           x="314.28574"
           y="-91.91198"
           inkscape:export-xdpi="96"
           inkscape:export-ydpi="96" />
        <path
           style="fill:#00c9ff;fill-opacity:1;stroke:none;stroke-width:0.60395795;stroke-linecap:square;stroke-linejoin:round;stroke-miterlimit:4;stroke-dasharray:none;stroke-opacity:0.97616906;paint-order:fill markers stroke"
           d="m 318.56129,-86.536786 a 4.2754998,5.3751911 0 0 1 -4.27549,5.375191 4.2754998,5.3751911 0 0 1 -4.27552,-5.375191 4.2754998,5.3751911 0 0 1 4.27552,-5.375192 4.2754998,5.3751911 0 0 1 4.27549,5.375192 z"
           id="path1335"
           inkscape:connector-curvature="0"
           inkscape:export-xdpi="96"
           inkscape:export-ydpi="96" />
        <path
           inkscape:connector-curvature="0"
           id="path1337"
           d="m 329.96264,-86.536786 a 4.2754998,5.3751911 0 0 1 -4.27552,5.375191 4.2754998,5.3751911 0 0 1 -4.27549,-5.375191 4.2754998,5.3751911 0 0 1 4.27549,-5.375192 4.2754998,5.3751911 0 0 1 4.27552,5.375192 z"
           style="fill:#00c9ff;fill-opacity:1;stroke:none;stroke-width:0.60395795;stroke-linecap:square;stroke-linejoin:round;stroke-miterlimit:4;stroke-dasharray:none;stroke-opacity:0.97616906;paint-order:fill markers stroke"
           inkscape:export-xdpi="96"
           inkscape:export-ydpi="96" />
        <path
           inkscape:connector-curvature="0"
           id="path1339"
           d="m 328.61836,-91.911982 a 8.7485978,6.0803387 0 0 1 -8.74861,6.080338 8.7485978,6.0803387 0 0 1 -8.7486,-6.080338 8.7485978,6.0803387 0 0 1 8.7486,-6.080337 8.7485978,6.0803387 0 0 1 8.74861,6.080337 z"
           style="fill:#00c9ff;fill-opacity:1;stroke:none;stroke-width:0.91886038;stroke-linecap:square;stroke-linejoin:round;stroke-miterlimit:4;stroke-dasharray:none;stroke-opacity:0.97616906;paint-order:fill markers stroke"
           inkscape:export-xdpi="96"
           inkscape:export-ydpi="96" />
        <g
           id="g975"
           style="fill:#3300e1;fill-opacity:1">
          <path
             style="fill:#3300e1;fill-opacity:1;stroke:none;stroke-width:1.88976383;stroke-linecap:square;stroke-linejoin:round;stroke-miterlimit:4;stroke-dasharray:none;stroke-opacity:0.97616906;paint-order:fill markers stroke"
             d="m 350.44922,74.658203 c -7.95643,1.66e-4 -15.80373,3.106293 -21.42969,8.732422 L 242.5918,169.81641 h -25 v 30 h 25 c 7.95651,0 15.72351,-3.26844 21.34961,-8.89453 l -0.002,-0.002 86.40039,-86.39844 0.006,-1.5996 v 1.56835 l 106.97071,0.26563 V 74.980469 L 350.44922,74.716797 Z"
             transform="matrix(0.26458333,0,0,0.26458333,127.504,-129.709)"
             id="rect1129"
             inkscape:connector-curvature="0" />
          <path
             inkscape:export-ydpi="96"
             inkscape:export-xdpi="96"
             inkscape:connector-curvature="0"
             id="path1135"
             d="m 189.044,-80.809709 a 3.9687498,3.9687498 0 0 1 -3.96875,3.96875 3.9687498,3.9687498 0 0 1 -3.96875,-3.96875 3.9687498,3.9687498 0 0 1 3.96875,-3.968749 3.9687498,3.9687498 0 0 1 3.96875,3.968749 z"
             style="fill:#3300e1;fill-opacity:1;stroke:none;stroke-width:0.5;stroke-linecap:square;stroke-linejoin:round;stroke-miterlimit:4;stroke-dasharray:none;stroke-opacity:0.97616906;paint-order:fill markers stroke" />
          <path
             inkscape:export-ydpi="96"
             inkscape:export-xdpi="96"
             style="fill:#3300e1;fill-opacity:1;stroke:none;stroke-width:0.5;stroke-linecap:square;stroke-linejoin:round;stroke-miterlimit:4;stroke-dasharray:none;stroke-opacity:0.97616906;paint-order:fill markers stroke"
             d="m 247.27373,-118.56432 6.96542,6.96539 -5.63042,5.63041 -6.96543,-6.9654 z"
             id="path1240"
             inkscape:connector-curvature="0"
             sodipodi:nodetypes="ccccc" />
          <path
             inkscape:export-ydpi="96"
             inkscape:export-xdpi="96"
             sodipodi:nodetypes="ccccc"
             inkscape:connector-curvature="0"
             id="path1242"
             d="m 241.64332,-99.003087 6.96541,-6.965433 5.63041,5.63044 -6.96541,6.965413 z"
             style="fill:#3300e1;fill-opacity:1;stroke:none;stroke-width:0.5;stroke-linecap:square;stroke-linejoin:round;stroke-miterlimit:4;stroke-dasharray:none;stroke-opacity:0.97616906;paint-order:fill markers stroke" />
          <path
             inkscape:export-ydpi="96"
             inkscape:export-xdpi="96"
             transform="scale(-1)"
             style="fill:#3300e1;fill-opacity:1;stroke:none;stroke-width:0.5;stroke-linecap:square;stroke-linejoin:bevel;stroke-miterlimit:4;stroke-dasharray:none;stroke-opacity:0.97616906;paint-order:fill markers stroke"
             id="path1244"
             sodipodi:type="arc"
             sodipodi:cx="-248.60873"
             sodipodi:cy="105.96851"
             sodipodi:rx="8.0079498"
             sodipodi:ry="8.0079498"
             sodipodi:start="1.5707963"
             sodipodi:end="4.712389"
             d="m -248.60873,113.97646 a 8.0079498,8.0079498 0 0 1 -6.93509,-4.00397 8.0079498,8.0079498 0 0 1 0,-8.00795 8.0079498,8.0079498 0 0 1 6.93509,-4.003976 l 0,8.007946 z" />
          <path
             inkscape:export-ydpi="96"
             inkscape:export-xdpi="96"
             style="fill:#3300e1;fill-opacity:1;stroke:none;stroke-width:0.5;stroke-linecap:square;stroke-linejoin:round;stroke-miterlimit:4;stroke-dasharray:none;stroke-opacity:0.97616906;paint-order:fill markers stroke"
             d="m 241.6433,-112.93392 a 3.9687498,3.9687498 0 0 1 0,-5.61266 3.9687498,3.9687498 0 0 1 5.61266,0 3.9687498,3.9687498 0 0 1 0,5.61266 3.9687498,3.9687498 0 0 1 -5.61266,0 z"
             id="path1246"
             inkscape:connector-curvature="0" />
          <path
             inkscape:export-ydpi="96"
             inkscape:export-xdpi="96"
             inkscape:connector-curvature="0"
             id="path1248"
             d="m 247.27373,-93.372667 a 3.9687498,3.9687498 0 0 1 -5.61266,0 3.9687498,3.9687498 0 0 1 0,-5.61266 3.9687498,3.9687498 0 0 1 5.61266,0 3.9687498,3.9687498 0 0 1 0,5.61266 z"
             style="fill:#3300e1;fill-opacity:1;stroke:none;stroke-width:0.5;stroke-linecap:square;stroke-linejoin:round;stroke-miterlimit:4;stroke-dasharray:none;stroke-opacity:0.97616906;paint-order:fill markers stroke" />
        </g>
        <path
           inkscape:export-ydpi="96"
           inkscape:export-xdpi="96"
           inkscape:connector-curvature="0"
           style="fill:#00c9ff;fill-opacity:1;stroke:none;stroke-width:0.33595803;stroke-linecap:square;stroke-linejoin:round;stroke-miterlimit:4;stroke-dasharray:none;stroke-opacity:0.97616906;paint-order:fill markers stroke"
           d="m 336.02247,-96.647842 h 7.9375 v 16.125993 h -7.9375 z"
           id="path992" />
        <path
           inkscape:export-ydpi="96"
           inkscape:export-xdpi="96"
           style="fill:#00c9ff;fill-opacity:1;stroke:none;stroke-width:0.5;stroke-linecap:square;stroke-linejoin:round;stroke-miterlimit:4;stroke-dasharray:none;stroke-opacity:0.97616906;paint-order:fill markers stroke"
           d="m 343.95997,-96.647858 a 3.9687498,3.9687498 0 0 1 -3.96875,3.968754 3.9687498,3.9687498 0 0 1 -3.96875,-3.968754 3.9687498,3.9687498 0 0 1 3.96875,-3.968722 3.9687498,3.9687498 0 0 1 3.96875,3.968722 z"
           id="path994"
           inkscape:connector-curvature="0" />
        <ellipse
           style="opacity:1;fill:#ffffff;fill-opacity:1;stroke:none;stroke-width:3.05900788;stroke-linecap:square;stroke-linejoin:round;stroke-miterlimit:4;stroke-dasharray:none;stroke-opacity:1;paint-order:fill markers stroke"
           id="path998"
           cx="317.05057"
           cy="-93.056274"
           rx="1.4662954"
           ry="2.1077523" />
        <ellipse
           ry="2.1077523"
           rx="1.4662954"
           cy="-93.017464"
           cx="322.24109"
           id="ellipse1000"
           style="opacity:1;fill:#ffffff;fill-opacity:1;stroke:none;stroke-width:3.05900788;stroke-linecap:square;stroke-linejoin:round;stroke-miterlimit:4;stroke-dasharray:none;stroke-opacity:1;paint-order:fill markers stroke" />
      </g>
    </g>
  </g>
</svg>
